# xmcd CD database file
#
# Track frame offsets:
#	150
#	28583
#	49408
#	71592
#	91276
#	114430
#	127555
#	145756
#	162566
#	187141
#	207314
#	223525
#	242929
#	255873
#	270805
#	285596
#	301527
#
# Disc length: 4256 seconds
#
# Revision: 0
# Processed by: cddbd v1.5.1PL2 Copyright (c) Steve Scherf et al.
# Submitted via: Feurio! 1.68 - http://www.feurio.com
#
DISCID=ea109e11
DTITLE=Lucinda Williams - Strawberry 1993 2
DYEAR=1900
DGENRE=
TTITLE0=Changed The Locks
TTITLE1=Side of the Road
TTITLE2=Sweet Old World
TTITLE3=Like A Rose
TTITLE4=Factory Blues
TTITLE5=Six Blocks Away
TTITLE6=Something About What Happens When We Talk
TTITLE7=Sidewalks Of The City
TTITLE8=Hot Blood
TTITLE9=Little Angel Little Brother
TTITLE10=What You Don't Know
TTITLE11=Sweet Old World
TTITLE12=Prove My Love
TTITLE13=Drivin' On A Dead-End Street
TTITLE14=Lines Around Your Eyes
TTITLE15=Pineola
TTITLE16=Which Will
EXTD=
EXTT0=
EXTT1=
EXTT2=
EXTT3=
EXTT4=
EXTT5=
EXTT6=
EXTT7=
EXTT8=
EXTT9=
EXTT10=
EXTT11=
EXTT12=
EXTT13=
EXTT14=
EXTT15=
EXTT16=
PLAYORDER=
